<svg width="46" height="33" viewBox="0 0 46 33" fill="none" xmlns="http://www.w3.org/2000/svg">
<path d="M16.304 32.64C13.2747 32.64 10.544 31.9573 8.112 30.592C5.68 29.184 3.76 27.2853 2.352 24.896C0.944 22.5067 0.24 19.7973 0.24 16.768C0.24 13.7813 0.922667 11.0933 2.288 8.704C3.696 6.31467 5.57333 4.43733 7.92 3.072C10.3093 1.664 12.976 0.959999 15.92 0.959999C18.736 0.959999 21.2107 1.6 23.344 2.88C25.52 4.16 27.2053 5.93067 28.4 8.192C29.6373 10.4533 30.256 13.0133 30.256 15.872C30.256 16.2987 30.2347 16.768 30.192 17.28C30.1493 17.7493 30.064 18.304 29.936 18.944H4.272V14.144H26.864L24.752 16C24.752 13.952 24.3893 12.224 23.664 10.816C22.9387 9.36533 21.9147 8.256 20.592 7.488C19.2693 6.67733 17.6693 6.272 15.792 6.272C13.8293 6.272 12.1013 6.69867 10.608 7.552C9.11467 8.40533 7.96267 9.6 7.152 11.136C6.34133 12.672 5.936 14.4853 5.936 16.576C5.936 18.7093 6.36267 20.5867 7.216 22.208C8.06933 23.7867 9.28533 25.024 10.864 25.92C12.4427 26.7733 14.256 27.2 16.304 27.2C18.0107 27.2 19.568 26.9013 20.976 26.304C22.4267 25.7067 23.664 24.8107 24.688 23.616L28.4 27.392C26.9493 29.0987 25.1573 30.4 23.024 31.296C20.9333 32.192 18.6933 32.64 16.304 32.64ZM41.5925 32.64C40.3978 32.64 39.3952 32.2347 38.5845 31.424C37.8165 30.5707 37.4325 29.568 37.4325 28.416C37.4325 27.2213 37.8165 26.24 38.5845 25.472C39.3952 24.6613 40.3978 24.256 41.5925 24.256C42.7872 24.256 43.7685 24.6613 44.5365 25.472C45.3472 26.24 45.7525 27.2213 45.7525 28.416C45.7525 29.568 45.3472 30.5707 44.5365 31.424C43.7685 32.2347 42.7872 32.64 41.5925 32.64Z" fill="black"/>
</svg>
