<svg width="38" height="73" viewBox="0 0 38 73" fill="none" xmlns="http://www.w3.org/2000/svg">
<path d="M18.304 58.64C15.2747 58.64 12.544 57.9573 10.112 56.592C7.68 55.184 5.76 53.2853 4.352 50.896C2.944 48.5067 2.24 45.7973 2.24 42.768C2.24 39.7813 2.92267 37.0933 4.288 34.704C5.696 32.3147 7.57333 30.4373 9.92 29.072C12.3093 27.664 14.976 26.96 17.92 26.96C20.736 26.96 23.2107 27.6 25.344 28.88C27.52 30.16 29.2053 31.9307 30.4 34.192C31.6373 36.4533 32.256 39.0133 32.256 41.872C32.256 42.2987 32.2347 42.768 32.192 43.28C32.1493 43.7493 32.064 44.304 31.936 44.944H6.272V40.144H28.864L26.752 42C26.752 39.952 26.3893 38.224 25.664 36.816C24.9387 35.3653 23.9147 34.256 22.592 33.488C21.2693 32.6773 19.6693 32.272 17.792 32.272C15.8293 32.272 14.1013 32.6987 12.608 33.552C11.1147 34.4053 9.96267 35.6 9.152 37.136C8.34133 38.672 7.936 40.4853 7.936 42.576C7.936 44.7093 8.36267 46.5867 9.216 48.208C10.0693 49.7867 11.2853 51.024 12.864 51.92C14.4427 52.7733 16.256 53.2 18.304 53.2C20.0107 53.2 21.568 52.9013 22.976 52.304C24.4267 51.7067 25.664 50.8107 26.688 49.616L30.4 53.392C28.9493 55.0987 27.1573 56.4 25.024 57.296C22.9333 58.192 20.6933 58.64 18.304 58.64Z" fill="black"/>
<path d="M31.8 51.4C31.0533 51.4 30.4267 51.1467 29.92 50.64C29.44 50.1067 29.2 49.48 29.2 48.76C29.2 48.0133 29.44 47.4 29.92 46.92C30.4267 46.4133 31.0533 46.16 31.8 46.16C32.5467 46.16 33.16 46.4133 33.64 46.92C34.1467 47.4 34.4 48.0133 34.4 48.76C34.4 49.48 34.1467 50.1067 33.64 50.64C33.16 51.1467 32.5467 51.4 31.8 51.4Z" fill="black"/>
</svg>
