<svg width="66" height="36" viewBox="0 0 66 36" fill="none" xmlns="http://www.w3.org/2000/svg">
<path d="M12.728 35.48C10.456 35.48 8.408 34.968 6.584 33.944C4.76 32.888 3.32 31.464 2.264 29.672C1.208 27.88 0.68 25.848 0.68 23.576C0.68 21.336 1.192 19.32 2.216 17.528C3.272 15.736 4.68 14.328 6.44 13.304C8.232 12.248 10.232 11.72 12.44 11.72C14.552 11.72 16.408 12.2 18.008 13.16C19.64 14.12 20.904 15.448 21.8 17.144C22.728 18.84 23.192 20.76 23.192 22.904C23.192 23.224 23.176 23.576 23.144 23.96C23.112 24.312 23.048 24.728 22.952 25.208H3.704V21.608H20.648L19.064 23C19.064 21.464 18.792 20.168 18.248 19.112C17.704 18.024 16.936 17.192 15.944 16.616C14.952 16.008 13.752 15.704 12.344 15.704C10.872 15.704 9.576 16.024 8.456 16.664C7.336 17.304 6.472 18.2 5.864 19.352C5.256 20.504 4.952 21.864 4.952 23.432C4.952 25.032 5.272 26.44 5.912 27.656C6.552 28.84 7.464 29.768 8.648 30.44C9.832 31.08 11.192 31.4 12.728 31.4C14.008 31.4 15.176 31.176 16.232 30.728C17.32 30.28 18.248 29.608 19.016 28.712L21.8 31.544C20.712 32.824 19.368 33.8 17.768 34.472C16.2 35.144 14.52 35.48 12.728 35.48ZM27.9024 35V0.727998H32.2224V35H27.9024ZM45.791 35.48C44.511 35.48 43.295 35.32 42.143 35C41.023 34.648 39.983 34.168 39.023 33.56C38.063 32.92 37.231 32.168 36.527 31.304L39.311 28.52C40.143 29.544 41.103 30.312 42.191 30.824C43.279 31.304 44.495 31.544 45.839 31.544C47.183 31.544 48.223 31.32 48.959 30.872C49.695 30.392 50.063 29.736 50.063 28.904C50.063 28.072 49.759 27.432 49.151 26.984C48.575 26.504 47.823 26.12 46.895 25.832C45.967 25.512 44.975 25.208 43.919 24.92C42.895 24.6 41.919 24.2 40.991 23.72C40.063 23.24 39.295 22.584 38.687 21.752C38.111 20.92 37.823 19.816 37.823 18.44C37.823 17.064 38.159 15.88 38.831 14.888C39.503 13.864 40.431 13.08 41.615 12.536C42.831 11.992 44.287 11.72 45.983 11.72C47.775 11.72 49.359 12.04 50.735 12.68C52.143 13.288 53.295 14.216 54.191 15.464L51.407 18.248C50.767 17.416 49.967 16.776 49.007 16.328C48.079 15.88 47.023 15.656 45.839 15.656C44.591 15.656 43.631 15.88 42.959 16.328C42.319 16.744 41.999 17.336 41.999 18.104C41.999 18.872 42.287 19.464 42.863 19.88C43.439 20.296 44.191 20.648 45.119 20.936C46.079 21.224 47.071 21.528 48.095 21.848C49.119 22.136 50.095 22.536 51.023 23.048C51.951 23.56 52.703 24.248 53.279 25.112C53.887 25.976 54.191 27.112 54.191 28.52C54.191 30.664 53.423 32.36 51.887 33.608C50.383 34.856 48.351 35.48 45.791 35.48ZM62.8194 35.48C61.9234 35.48 61.1714 35.176 60.5634 34.568C59.9874 33.928 59.6994 33.176 59.6994 32.312C59.6994 31.416 59.9874 30.68 60.5634 30.104C61.1714 29.496 61.9234 29.192 62.8194 29.192C63.7154 29.192 64.4514 29.496 65.0274 30.104C65.6354 30.68 65.9394 31.416 65.9394 32.312C65.9394 33.176 65.6354 33.928 65.0274 34.568C64.4514 35.176 63.7154 35.48 62.8194 35.48Z" fill="white"/>
</svg>
